<svg width="85" height="85" viewBox="0 0 85 85" fill="none" xmlns="http://www.w3.org/2000/svg">
<path d="M38.4341 52.3174L37.0776 55.5863" stroke="#6E40C9" stroke-width="4" stroke-linecap="round" stroke-linejoin="round"/>
<path d="M38.4341 32.6825L37.0776 29.4136" stroke="#6E40C9" stroke-width="4" stroke-linecap="round" stroke-linejoin="round"/>
<path d="M46.5659 52.3174L47.9188 55.5899" stroke="#6E40C9" stroke-width="4" stroke-linecap="round" stroke-linejoin="round"/>
<path d="M47.9224 29.4136L46.5659 32.6825" stroke="#6E40C9" stroke-width="4" stroke-linecap="round" stroke-linejoin="round"/>
<path d="M52.3174 38.4341L55.5863 37.0776" stroke="#6E40C9" stroke-width="4" stroke-linecap="round" stroke-linejoin="round"/>
<path d="M52.3174 46.5659L55.5863 47.9224" stroke="#6E40C9" stroke-width="4" stroke-linecap="round" stroke-linejoin="round"/>
<path d="M62.3262 23.0208C63.1412 21.6094 63.6205 20.0295 63.7272 18.4032C63.8338 16.7769 63.5649 15.1479 62.9413 13.6421C62.3176 12.1364 61.3559 10.7943 60.1306 9.71967C58.9053 8.64505 57.4492 7.86673 55.8749 7.4449C54.3007 7.02308 52.6505 6.96906 51.052 7.28703C49.4536 7.605 47.9497 8.28643 46.6567 9.27861C45.3637 10.2708 44.3163 11.5471 43.5955 13.0088C42.8747 14.4706 42.4999 16.0785 42.4999 17.7083C42.5021 15.3488 41.7188 13.0558 40.2735 11.1907C38.8283 9.32565 36.8034 7.9947 34.5181 7.40774C32.2328 6.82079 29.8171 7.01122 27.652 7.94901C25.4869 8.8868 23.6955 10.5186 22.5604 12.5871C21.626 14.2879 21.1752 16.2122 21.257 18.151C19.1751 18.6866 17.2423 19.6889 15.6051 21.0822C13.9679 22.4754 12.6693 24.2229 11.8076 26.1924C10.9458 28.1619 10.5437 30.3017 10.6315 32.4496C10.7193 34.5976 11.2947 36.6974 12.3143 38.59" stroke="#6E40C9" stroke-width="4" stroke-linecap="round" stroke-linejoin="round"/>
<path d="M63.7429 18.1509C65.8249 18.6864 67.7577 19.6888 69.3949 21.082C71.032 22.4752 72.3307 24.2228 73.1924 26.1923C74.0541 28.1618 74.4563 30.3015 74.3685 32.4495C74.2807 34.5974 73.7052 36.6972 72.6856 38.5898" stroke="#6E40C9" stroke-width="4" stroke-linecap="round" stroke-linejoin="round"/>
<path d="M69.0803 36.458C72.1233 37.6939 74.6423 39.9487 76.2065 42.8367C77.7706 45.7246 78.2827 49.0664 77.6552 52.2902C77.0276 55.5141 75.2995 58.4197 72.7662 60.5101C70.233 62.6006 67.0522 63.7458 63.7678 63.7501" stroke="#6E40C9" stroke-width="4" stroke-linecap="round" stroke-linejoin="round"/>
<path d="M14.28 61.9189C13.8537 65.1692 14.5677 68.4667 16.3004 71.2495C18.0331 74.0323 20.6772 76.128 23.7821 77.1795C26.8869 78.2311 30.2604 78.1733 33.3275 77.0161C36.3945 75.8588 38.9653 73.6738 40.6017 70.8333C41.2392 69.7319 43.7609 69.7319 44.3984 70.8333C46.0347 73.6732 48.6052 75.8578 51.6718 77.0149C54.7383 78.172 58.1112 78.23 61.2158 77.1791C64.3203 76.1281 66.9644 74.0331 68.6974 71.2511C70.4305 68.4692 71.1453 65.1724 70.72 61.9225" stroke="#6E40C9" stroke-width="4" stroke-linecap="round" stroke-linejoin="round"/>
<path d="M15.9375 36.4473C12.8878 37.6788 10.3616 39.9332 8.79218 42.8236C7.2228 45.7141 6.70807 49.0606 7.33626 52.2891C7.96445 55.5176 9.69642 58.4269 12.2351 60.518C14.7738 62.6092 17.961 63.7518 21.25 63.75" stroke="#6E40C9" stroke-width="4" stroke-linecap="round" stroke-linejoin="round"/>
<path d="M21.2571 18.1509C21.3293 19.8647 21.8153 21.5356 22.6737 23.0207" stroke="#6E40C9" stroke-width="4" stroke-linecap="round" stroke-linejoin="round"/>
<path d="M32.6825 38.4341L29.4136 37.0776" stroke="#6E40C9" stroke-width="4" stroke-linecap="round" stroke-linejoin="round"/>
<path d="M32.6825 46.5659L29.4136 47.9224" stroke="#6E40C9" stroke-width="4" stroke-linecap="round" stroke-linejoin="round"/>
<path d="M42.5 53.125C48.368 53.125 53.125 48.368 53.125 42.5C53.125 36.632 48.368 31.875 42.5 31.875C36.632 31.875 31.875 36.632 31.875 42.5C31.875 48.368 36.632 53.125 42.5 53.125Z" stroke="#6E40C9" stroke-width="4" stroke-linecap="round" stroke-linejoin="round"/>
</svg>
