<svg width="425" height="362" viewBox="0 0 425 362" fill="none" xmlns="http://www.w3.org/2000/svg">
<g clip-path="url(#clip0_229_118)">
<path d="M336.895 140.646L424.553 151.079M388.573 353.576L324.465 306.803L255.451 281.618L186.437 241.714L98.4517 261.666M98.4517 261.666L181.858 315.634L126.744 353.412L98.4517 261.666ZM98.4517 261.666L20.9333 226.995L118.731 190.689L75.2289 140.646L126.744 91.7467L62.7998 45.1375" stroke="#6E40C9" stroke-opacity="0.2" stroke-width="0.431171"/>
<path d="M75.2288 140.645L162.887 151.112L212.93 190.689L282.599 226.995L186.273 241.55L118.567 190.525M206.389 361.753L181.857 315.634" stroke="#6E40C9" stroke-opacity="0.2" stroke-width="0.431171"/>
<path d="M255.451 281.617L274.422 341.146L324.466 306.802L360.117 261.665L282.599 226.994L255.451 281.617ZM255.451 281.617L181.858 315.634L186.437 241.713L212.931 190.688L261.666 153.728L336.895 140.645L274.258 79.317L206.389 100.087L181.858 53.9681L126.744 91.7461L162.887 151.111L118.731 190.688L98.4519 261.665L62.7999 306.802L126.908 353.575" stroke="#6E40C9" stroke-opacity="0.2" stroke-width="0.431171"/>
<path d="M255.451 19.9523L274.585 79.6447L324.465 45.1376M282.599 226.995L261.666 153.729M261.666 153.729L162.887 151.112L206.389 100.087M261.666 153.729L380.396 190.689M212.93 190.689H118.731" stroke="#6E40C9" stroke-opacity="0.2" stroke-width="0.431171"/>
<path d="M12.7562 79.4809L126.744 91.7465L206.389 100.087L261.666 153.729L274.258 79.3174M274.258 79.3174L388.573 91.9101L336.894 140.645L380.396 190.689L282.599 226.995L324.465 306.803M274.258 79.3174L181.858 53.9685M274.422 341.147L181.858 315.634M98.4517 0L126.908 91.9101M118.731 190.689L0 153.729" stroke="#6E40C9" stroke-opacity="0.2" stroke-width="0.431171"/>
<path d="M311.895 200.281C312.798 200.281 313.53 199.549 313.53 198.646C313.53 197.742 312.798 197.01 311.895 197.01C310.991 197.01 310.259 197.742 310.259 198.646C310.259 199.549 310.991 200.281 311.895 200.281Z" fill="#6E40C9" fill-opacity="0.2"/>
<path d="M236.666 213.364C237.569 213.364 238.301 212.632 238.301 211.729C238.301 210.826 237.569 210.093 236.666 210.093C235.762 210.093 235.03 210.826 235.03 211.729C235.03 212.632 235.762 213.364 236.666 213.364Z" fill="#6E40C9" fill-opacity="0.2"/>
<path d="M257.599 286.631C258.502 286.631 259.234 285.899 259.234 284.996C259.234 284.092 258.502 283.36 257.599 283.36C256.695 283.36 255.963 284.092 255.963 284.996C255.963 285.899 256.695 286.631 257.599 286.631Z" fill="#6E40C9" fill-opacity="0.2"/>
<path d="M230.451 341.254C231.354 341.254 232.086 340.522 232.086 339.618C232.086 338.715 231.354 337.983 230.451 337.983C229.548 337.983 228.816 338.715 228.816 339.618C228.816 340.522 229.548 341.254 230.451 341.254Z" fill="#6E40C9" fill-opacity="0.2"/>
<path d="M161.437 301.35C162.34 301.35 163.072 300.618 163.072 299.714C163.072 298.811 162.34 298.079 161.437 298.079C160.533 298.079 159.801 298.811 159.801 299.714C159.801 300.618 160.533 301.35 161.437 301.35Z" fill="#6E40C9" fill-opacity="0.2"/>
<path d="M73.4519 321.302C74.3551 321.302 75.0873 320.57 75.0873 319.667C75.0873 318.763 74.3551 318.031 73.4519 318.031C72.5487 318.031 71.8165 318.763 71.8165 319.667C71.8165 320.57 72.5487 321.302 73.4519 321.302Z" fill="#6E40C9" fill-opacity="0.2"/>
<path d="M93.7307 250.325C94.634 250.325 95.3662 249.593 95.3662 248.69C95.3662 247.786 94.634 247.054 93.7307 247.054C92.8275 247.054 92.0953 247.786 92.0953 248.69C92.0953 249.593 92.8275 250.325 93.7307 250.325Z" fill="#6E40C9" fill-opacity="0.2"/>
<path d="M101.908 151.546C102.811 151.546 103.543 150.814 103.543 149.91C103.543 149.007 102.811 148.275 101.908 148.275C101.004 148.275 100.272 149.007 100.272 149.91C100.272 150.814 101.004 151.546 101.908 151.546Z" fill="#6E40C9" fill-opacity="0.2"/>
<path d="M181.389 159.723C182.292 159.723 183.024 158.991 183.024 158.087C183.024 157.184 182.292 156.452 181.389 156.452C180.485 156.452 179.753 157.184 179.753 158.087C179.753 158.991 180.485 159.723 181.389 159.723Z" fill="#6E40C9" fill-opacity="0.2"/>
<path d="M249.422 139.116C250.325 139.116 251.057 138.384 251.057 137.481C251.057 136.578 250.325 135.846 249.422 135.846C248.518 135.846 247.786 136.578 247.786 137.481C247.786 138.384 248.518 139.116 249.422 139.116Z" fill="#6E40C9" fill-opacity="0.2"/>
<path d="M137.887 210.748C138.79 210.748 139.522 210.016 139.522 209.113C139.522 208.209 138.79 207.477 137.887 207.477C136.984 207.477 136.252 208.209 136.252 209.113C136.252 210.016 136.984 210.748 137.887 210.748Z" fill="#6E40C9" fill-opacity="0.2"/>
<path d="M187.93 250.325C188.833 250.325 189.566 249.593 189.566 248.69C189.566 247.786 188.833 247.054 187.93 247.054C187.027 247.054 186.295 247.786 186.295 248.69C186.295 249.593 187.027 250.325 187.93 250.325Z" fill="#6E40C9" fill-opacity="0.2"/>
</g>
<defs>
<clipPath id="clip0_229_118">
<rect width="424.55" height="361.75" fill="white"/>
</clipPath>
</defs>
</svg>
