<svg width="85" height="85" viewBox="0 0 85 85" fill="none" xmlns="http://www.w3.org/2000/svg">
<path d="M77.9166 27.2704C77.9166 25.1454 76.4999 23.0204 75.0833 21.9579L52.7708 8.14545C51.8532 7.62385 50.8158 7.34961 49.7603 7.34961C48.7049 7.34961 47.6675 7.62385 46.7499 8.14545L10.2708 29.3954C8.49992 30.1038 7.08325 32.2288 7.08325 34.3538V57.7288C7.08325 59.4996 8.49992 61.9788 9.91659 63.0413L32.2291 76.8538C33.1467 77.3754 34.184 77.6496 35.2395 77.6496C36.295 77.6496 37.3323 77.3754 38.2499 76.8538L74.7291 55.6038C76.4999 54.5413 77.9166 52.0621 77.9166 50.2913V27.2704Z" stroke="#6E40C9" stroke-width="4" stroke-linecap="round" stroke-linejoin="round"/>
<path d="M35.4167 77.5628V49.5837L7.4375 32.2295" stroke="#6E40C9" stroke-width="4" stroke-linecap="round" stroke-linejoin="round"/>
<path d="M35.4167 49.583L77.5626 25.1455" stroke="#6E40C9" stroke-width="4" stroke-linecap="round" stroke-linejoin="round"/>
<path d="M49.5833 70.125V41.4375" stroke="#6E40C9" stroke-width="4" stroke-linecap="round" stroke-linejoin="round"/>
<path d="M63.75 61.9795V33.292" stroke="#6E40C9" stroke-width="4" stroke-linecap="round" stroke-linejoin="round"/>
</svg>
