<svg width="85" height="85" viewBox="0 0 85 85" fill="none" xmlns="http://www.w3.org/2000/svg">
<path d="M42.5001 17.7081C42.5043 16.2915 42.2251 14.8884 41.6791 13.5813C41.1331 12.2742 40.3312 11.0895 39.3206 10.0968C38.31 9.10417 37.1112 8.32361 35.7945 7.80107C34.4778 7.27853 33.07 7.02455 31.6537 7.05407C30.2375 7.08359 28.8414 7.39601 27.5477 7.97296C26.2539 8.54992 25.0886 9.37975 24.1203 10.4137C23.1519 11.4476 22.4001 12.6647 21.909 13.9934C21.4179 15.3221 21.1975 16.7356 21.2607 18.1508C19.1789 18.686 17.2462 19.688 15.609 21.0808C13.9718 22.4736 12.673 24.2207 11.811 26.1898C10.949 28.1589 10.5463 30.2983 10.6336 32.446C10.7208 34.5938 11.2956 36.6935 12.3145 38.5862C10.523 40.0416 9.11431 41.9126 8.21087 44.0366C7.30744 46.1605 6.93665 48.4731 7.13075 50.773C7.32486 53.073 8.07798 55.2906 9.32461 57.2331C10.5712 59.1756 12.2736 60.7841 14.2836 61.9187C14.0354 63.8391 14.1835 65.79 14.7189 67.651C15.2542 69.5119 16.1653 71.2433 17.396 72.7383C18.6267 74.2333 20.1508 75.4602 21.8742 76.343C23.5976 77.2259 25.4837 77.7461 27.416 77.8715C29.3484 77.9969 31.2859 77.7249 33.109 77.0721C34.932 76.4193 36.6019 75.3998 38.0155 74.0764C39.4291 72.753 40.5563 71.1538 41.3277 69.3777C42.099 67.6015 42.498 65.6861 42.5001 63.7497V17.7081Z" stroke="#6E40C9" stroke-width="4" stroke-linecap="round" stroke-linejoin="round"/>
<path d="M31.875 46.0417C34.8484 44.9957 37.4449 43.0914 39.3361 40.5698C41.2274 38.0482 42.3284 35.0224 42.5 31.875" stroke="#6E40C9" stroke-width="4" stroke-linecap="round" stroke-linejoin="round"/>
<path d="M21.2607 18.1514C21.3308 19.8646 21.8144 21.5354 22.6703 23.0212" stroke="#6E40C9" stroke-width="4" stroke-linecap="round" stroke-linejoin="round"/>
<path d="M12.3145 38.59C12.9624 38.0623 13.6557 37.593 14.3863 37.1875" stroke="#6E40C9" stroke-width="4" stroke-linecap="round" stroke-linejoin="round"/>
<path d="M21.2499 63.7504C18.8091 63.7515 16.4094 63.122 14.2834 61.9229" stroke="#6E40C9" stroke-width="4" stroke-linecap="round" stroke-linejoin="round"/>
<path d="M42.5 46.042H56.6667" stroke="#6E40C9" stroke-width="4" stroke-linecap="round" stroke-linejoin="round"/>
<path d="M42.5 63.75H63.75C65.6286 63.75 67.4303 64.4963 68.7587 65.8247C70.0871 67.153 70.8333 68.9547 70.8333 70.8333V74.375" stroke="#6E40C9" stroke-width="4" stroke-linecap="round" stroke-linejoin="round"/>
<path d="M42.5 28.333H70.8333" stroke="#6E40C9" stroke-width="4" stroke-linecap="round" stroke-linejoin="round"/>
<path d="M56.6667 28.3333V17.7083C56.6667 15.8297 57.413 14.028 58.7414 12.6997C60.0698 11.3713 61.8715 10.625 63.7501 10.625" stroke="#6E40C9" stroke-width="4" stroke-linecap="round" stroke-linejoin="round"/>
<path d="M56.6666 47.8122C57.6446 47.8122 58.4374 47.0193 58.4374 46.0413C58.4374 45.0633 57.6446 44.2705 56.6666 44.2705C55.6886 44.2705 54.8958 45.0633 54.8958 46.0413C54.8958 47.0193 55.6886 47.8122 56.6666 47.8122Z" stroke="#6E40C9" stroke-width="4" stroke-linecap="round" stroke-linejoin="round"/>
<path d="M63.7501 12.3962C64.7281 12.3962 65.5209 11.6033 65.5209 10.6253C65.5209 9.64732 64.7281 8.85449 63.7501 8.85449C62.7721 8.85449 61.9792 9.64732 61.9792 10.6253C61.9792 11.6033 62.7721 12.3962 63.7501 12.3962Z" stroke="#6E40C9" stroke-width="4" stroke-linecap="round" stroke-linejoin="round"/>
<path d="M70.8333 76.1462C71.8113 76.1462 72.6042 75.3533 72.6042 74.3753C72.6042 73.3973 71.8113 72.6045 70.8333 72.6045C69.8553 72.6045 69.0625 73.3973 69.0625 74.3753C69.0625 75.3533 69.8553 76.1462 70.8333 76.1462Z" stroke="#6E40C9" stroke-width="4" stroke-linecap="round" stroke-linejoin="round"/>
<path d="M70.8333 30.1042C71.8113 30.1042 72.6042 29.3113 72.6042 28.3333C72.6042 27.3553 71.8113 26.5625 70.8333 26.5625C69.8553 26.5625 69.0625 27.3553 69.0625 28.3333C69.0625 29.3113 69.8553 30.1042 70.8333 30.1042Z" stroke="#6E40C9" stroke-width="4" stroke-linecap="round" stroke-linejoin="round"/>
</svg>
