<svg width="85" height="85" viewBox="0 0 85 85" fill="none" xmlns="http://www.w3.org/2000/svg">
<path d="M15.9376 58.437C10.6251 62.8995 8.85425 76.1454 8.85425 76.1454C8.85425 76.1454 22.1001 74.3746 26.5626 69.062C29.0772 66.087 29.0417 61.5183 26.2438 58.7558C24.8672 57.4419 23.0538 56.6826 21.1517 56.6238C19.2496 56.565 17.3928 57.2107 15.9376 58.437Z" stroke="#6E40C9" stroke-width="4" stroke-linecap="round" stroke-linejoin="round"/>
<path d="M42.5 53.1246L31.875 42.4996C33.7597 37.6101 36.1328 32.9231 38.9583 28.51C43.085 21.9118 48.8312 16.4791 55.6502 12.7286C62.4693 8.97817 70.1344 7.03464 77.9167 7.08291C77.9167 16.7162 75.1542 33.6454 56.6667 46.0412C52.1931 48.8701 47.4472 51.243 42.5 53.1246Z" stroke="#6E40C9" stroke-width="4" stroke-linecap="round" stroke-linejoin="round"/>
<path d="M31.8751 42.5005H14.1667C14.1667 42.5005 16.1147 31.7692 21.2501 28.3338C26.9876 24.5088 38.9584 28.3338 38.9584 28.3338" stroke="#6E40C9" stroke-width="4" stroke-linecap="round" stroke-linejoin="round"/>
<path d="M42.5 53.1253V70.8337C42.5 70.8337 53.2313 68.8857 56.6667 63.7503C60.4917 58.0128 56.6667 46.042 56.6667 46.042" stroke="#6E40C9" stroke-width="4" stroke-linecap="round" stroke-linejoin="round"/>
</svg>
