<svg width="80" height="80" viewBox="0 0 80 80" fill="none" xmlns="http://www.w3.org/2000/svg">
<g clip-path="url(#clip0_237_717)">
<path fill-rule="evenodd" clip-rule="evenodd" d="M80 40C80 62.0914 62.0914 80 40 80C17.9086 80 0 62.0914 0 40C0 17.9086 17.9086 0 40 0C62.0914 0 80 17.9086 80 40ZM41.4334 29.5298C37.5428 31.148 29.7671 34.4973 18.1063 39.5777C16.2128 40.3307 15.2209 41.0674 15.1306 41.7877C14.978 43.005 16.5024 43.4843 18.5782 44.1371C18.8606 44.2259 19.1532 44.3179 19.4531 44.4154C21.4955 45.0792 24.2428 45.8559 25.671 45.8868C26.9665 45.9148 28.4124 45.3807 30.0088 44.2845C40.9039 36.93 46.5279 33.2127 46.881 33.1326C47.1301 33.076 47.4753 33.0049 47.7092 33.2128C47.9431 33.4207 47.9201 33.8144 47.8953 33.92C47.7443 34.5638 41.7604 40.127 38.6637 43.0059C37.6984 43.9034 37.0136 44.5401 36.8736 44.6855C36.56 45.0112 36.2404 45.3192 35.9333 45.6153C34.0359 47.4444 32.613 48.8161 36.012 51.056C37.6455 52.1324 38.9525 53.0225 40.2565 53.9105C41.6806 54.8803 43.101 55.8476 44.9387 57.0522C45.4069 57.3591 45.8541 57.6779 46.2896 57.9884C47.9469 59.1699 49.4358 60.2314 51.2753 60.0621C52.3441 59.9637 53.4482 58.9587 54.0089 55.9612C55.334 48.8771 57.9388 33.5282 58.5407 27.2032C58.5935 26.6491 58.5271 25.9399 58.4738 25.6286C58.4206 25.3173 58.3092 24.8737 57.9046 24.5453C57.4253 24.1565 56.6854 24.0745 56.3545 24.0803C54.8501 24.1068 52.5418 24.9094 41.4334 29.5298Z" fill="#6E40C9" fill-opacity="0.8"/>
</g>
<defs>
<clipPath id="clip0_237_717">
<rect width="80" height="80" fill="white"/>
</clipPath>
</defs>
</svg>
