<svg width="80" height="80" viewBox="0 0 80 80" fill="none" xmlns="http://www.w3.org/2000/svg">
<g clip-path="url(#clip0_237_720)">
<path fill-rule="evenodd" clip-rule="evenodd" d="M5.62355 5.62355C0 11.2471 0 20.298 0 38.4V41.6C0 59.702 0 68.7528 5.62355 74.3765C11.2471 80 20.298 80 38.4 80H41.6C59.702 80 68.7528 80 74.3765 74.3765C80 68.7528 80 59.702 80 41.6V38.4C80 20.298 80 11.2471 74.3765 5.62355C68.7528 0 59.702 0 41.6 0H38.4C20.298 0 11.2471 0 5.62355 5.62355ZM13.5002 24.3335C13.9335 45.1335 24.3335 57.6335 42.5668 57.6335H43.6003V45.7335C50.3003 46.4002 55.3667 51.3002 57.4 57.6335H66.8668C64.2668 48.1668 57.4332 42.9335 53.1665 40.9335C57.4332 38.4668 63.4332 32.4668 64.8665 24.3335H56.2663C54.3997 30.9335 48.867 36.9335 43.6003 37.5002V24.3335H35V47.4002C29.6667 46.0668 22.9335 39.6002 22.6335 24.3335H13.5002Z" fill="#6E40C9" fill-opacity="0.8"/>
</g>
<defs>
<clipPath id="clip0_237_720">
<rect width="80" height="80" fill="white"/>
</clipPath>
</defs>
</svg>
